<?xml version="1.0" encoding="UTF-8" standalone="no"?>
<!-- Generator: Adobe Illustrator 19.0.0, SVG Export Plug-In . SVG Version: 6.00 Build 0)  -->

<svg
   xmlns:dc="http://purl.org/dc/elements/1.1/"
   xmlns:cc="http://creativecommons.org/ns#"
   xmlns:rdf="http://www.w3.org/1999/02/22-rdf-syntax-ns#"
   xmlns:svg="http://www.w3.org/2000/svg"
   xmlns="http://www.w3.org/2000/svg"
   xmlns:sodipodi="http://sodipodi.sourceforge.net/DTD/sodipodi-0.dtd"
   xmlns:inkscape="http://www.inkscape.org/namespaces/inkscape"
   version="1.1"
   id="Layer_1"
   x="0px"
   y="0px"
   viewBox="0 0 495 495"
   style="enable-background:new 0 0 495 495;"
   xml:space="preserve"
   sodipodi:docname="settingsIcon.svg"
   inkscape:version="0.92.4 (5da689c313, 2019-01-14)"><metadata
   id="metadata4602"><rdf:RDF><cc:Work
       rdf:about=""><dc:format>image/svg+xml</dc:format><dc:type
         rdf:resource="http://purl.org/dc/dcmitype/StillImage" /></cc:Work></rdf:RDF></metadata><defs
   id="defs4600" /><sodipodi:namedview
   pagecolor="#ffffff"
   bordercolor="#666666"
   borderopacity="1"
   objecttolerance="10"
   gridtolerance="10"
   guidetolerance="10"
   inkscape:pageopacity="0"
   inkscape:pageshadow="2"
   inkscape:window-width="1920"
   inkscape:window-height="1057"
   id="namedview4598"
   showgrid="false"
   inkscape:zoom="1.2685067"
   inkscape:cx="401.73593"
   inkscape:cy="298.22032"
   inkscape:window-x="1208"
   inkscape:window-y="-8"
   inkscape:window-maximized="1"
   inkscape:current-layer="Layer_1" />
<g
   id="g4565">
	<path
   style="fill:#ffffff"
   d="m 187.5,0 v 64.820312 c -12.42,4.180001 -24.31937,9.649376 -35.60938,16.359376 L 107.84961,37.140625 30.060547,114.91992 77.800781,162.66016 c -5.28,11.19 -9.411328,22.82984 -12.361328,34.83984 H 0 v 110 h 71.580078 c 3.93,10.63 8.80961,20.84938 14.59961,30.60938 l -49.039063,49.04101 77.779295,77.78906 52.74024,-52.75 c 9.62,4.54 19.58984,8.24055 29.83984,11.06055 V 495 h 50 60 v -74.82031 c 10.09,-3.4 19.85047,-7.66024 29.23047,-12.74024 l 50.41992,50.41993 77.78906,-77.7793 -51.05859,-51.05078 c 5.27,-10.11 9.5782,-20.6393 12.9082,-31.5293 H 495 v -110 h -68.21094 c -3.63,-11.87 -8.41961,-23.31047 -14.34961,-34.23047 L 457.85938,107.84961 380.08008,30.060547 334.0293,76.119141 C 322.3693,70.039141 310.16,65.230234 297.5,61.740234 V 0 h -50 z m 60,152 c 52.66,0 95.5,42.84 95.5,95.5 0,52.66 -42.84,95.5 -95.5,95.5 -52.66,0 -95.5,-42.84 -95.5,-95.5 0,-52.66 42.84,-95.5 95.5,-95.5 z"
   id="path4561"
   inkscape:connector-curvature="0" />
	
</g>
<g
   id="g4567">
</g>
<g
   id="g4569">
</g>
<g
   id="g4571">
</g>
<g
   id="g4573">
</g>
<g
   id="g4575">
</g>
<g
   id="g4577">
</g>
<g
   id="g4579">
</g>
<g
   id="g4581">
</g>
<g
   id="g4583">
</g>
<g
   id="g4585">
</g>
<g
   id="g4587">
</g>
<g
   id="g4589">
</g>
<g
   id="g4591">
</g>
<g
   id="g4593">
</g>
<g
   id="g4595">
</g>
</svg>